<svg width="111" height="44" viewBox="0 0 111 44" fill="none" xmlns="http://www.w3.org/2000/svg">
<path fill-rule="evenodd" clip-rule="evenodd" d="M13.526 31.1425C12.9746 31.1425 12.5216 31.0157 12.1672 30.762C11.8324 30.5083 11.6158 30.1668 11.5173 29.7374C11.4386 29.3081 11.5272 28.83 11.7832 28.3031L19.3451 11.8811C19.6602 11.2176 20.0344 10.7394 20.4676 10.4467C20.9008 10.1345 21.403 9.97835 21.9741 9.97835C22.5452 9.97835 23.0473 10.1345 23.4806 10.4467C23.9138 10.7394 24.2781 11.2176 24.5735 11.8811L32.1945 28.3031C32.4505 28.83 32.5391 29.3179 32.4604 29.7667C32.4013 30.1961 32.2044 30.5376 31.8696 30.7913C31.5348 31.0254 31.1016 31.1425 30.5699 31.1425C29.9003 31.1425 29.3785 30.9864 29.0043 30.6742C28.6499 30.3619 28.3348 29.8741 28.0591 29.2105L26.835 26.4004H17.0927L15.8891 29.2105C15.5937 29.8936 15.2786 30.3912 14.9438 30.7034C14.6288 30.9962 14.1561 31.1425 13.526 31.1425ZM21.915 15.0718L18.6175 22.8584H25.2973L21.9741 15.0718H21.915Z" fill="url(#paint0_linear_349_37)"/>
<path fill-rule="evenodd" clip-rule="evenodd" d="M21.9888 43.8306C34.1329 43.8306 43.9776 34.0188 43.9776 21.9153C43.9776 9.81182 34.1329 -4.34075e-06 21.9888 -3.8147e-06C9.84473 -3.28864e-06 0 9.81182 0 21.9153C0 34.0188 9.84473 43.8306 21.9888 43.8306ZM21.9888 39.7192C31.8193 39.7192 39.8288 31.7703 39.8288 21.9153C39.8288 12.0604 31.8193 4.11145 21.9888 4.11145C12.1583 4.11145 4.14883 12.0604 4.14883 21.9153C4.14883 31.7703 12.1583 39.7192 21.9888 39.7192Z" fill="url(#paint1_linear_349_37)"/>
<path d="M101.935 31.322C101.108 31.322 100.261 31.2537 99.3948 31.1171C98.548 31 97.7308 30.8244 96.9431 30.5902C96.175 30.356 95.4858 30.0633 94.8753 29.712C94.4421 29.4778 94.1369 29.1753 93.9596 28.8045C93.7824 28.4142 93.7135 28.0239 93.7529 27.6336C93.8119 27.2433 93.9596 26.9018 94.1959 26.6091C94.452 26.2968 94.767 26.1017 95.1412 26.0236C95.535 25.9261 95.9683 25.9944 96.4409 26.2285C97.2483 26.6774 98.1246 27.0091 99.0699 27.2238C100.035 27.4385 100.99 27.5458 101.935 27.5458C103.373 27.5458 104.397 27.3311 105.007 26.9018C105.618 26.453 105.923 25.8968 105.923 25.2333C105.923 24.6673 105.706 24.2185 105.273 23.8867C104.84 23.555 104.082 23.272 102.999 23.0378L99.6606 22.3353C97.7701 21.945 96.3621 21.2814 95.4366 20.3447C94.5307 19.3885 94.0778 18.1395 94.0778 16.5978C94.0778 15.6221 94.2846 14.7341 94.6981 13.934C95.1116 13.1339 95.6926 12.4411 96.4409 11.8556C97.1892 11.2702 98.0754 10.8213 99.0994 10.5091C100.143 10.1968 101.285 10.0407 102.526 10.0407C103.629 10.0407 104.712 10.1773 105.775 10.4505C106.839 10.7042 107.774 11.0848 108.581 11.5922C108.975 11.8264 109.241 12.1288 109.379 12.4996C109.536 12.8509 109.586 13.2119 109.527 13.5827C109.487 13.934 109.34 14.2462 109.084 14.5194C108.847 14.7927 108.542 14.9683 108.168 15.0464C107.794 15.1244 107.341 15.0366 106.809 14.7829C106.159 14.4511 105.47 14.2072 104.741 14.0511C104.013 13.895 103.264 13.8169 102.496 13.8169C101.669 13.8169 100.96 13.9242 100.37 14.1389C99.7985 14.3536 99.3554 14.6561 99.0403 15.0464C98.7449 15.4367 98.5972 15.8855 98.5972 16.3929C98.5972 16.9588 98.804 17.4174 99.2176 17.7687C99.6311 18.12 100.35 18.403 101.374 18.6176L104.712 19.3202C106.642 19.73 108.079 20.3935 109.024 21.3107C109.97 22.2084 110.442 23.3988 110.442 24.882C110.442 25.8577 110.245 26.7457 109.852 27.5458C109.458 28.3264 108.887 28.9997 108.138 29.5656C107.39 30.1316 106.494 30.5707 105.45 30.8829C104.407 31.1756 103.235 31.322 101.935 31.322Z" fill="url(#paint2_linear_349_37)"/>
<path fill-rule="evenodd" clip-rule="evenodd" d="M48.0166 30.8829C48.371 31.1366 48.824 31.2634 49.3754 31.2634C50.0055 31.2634 50.4781 31.1171 50.7932 30.8244C51.128 30.5121 51.4431 30.0145 51.7385 29.3314L52.9421 26.5213H62.6844L63.9085 29.3314C64.1842 29.995 64.4993 30.4828 64.8537 30.7951C65.2279 31.1073 65.7497 31.2634 66.4193 31.2634C66.951 31.2634 67.3842 31.1464 67.719 30.9122C68.0538 30.6585 68.2507 30.317 68.3098 29.8876C68.3885 29.4388 68.2999 28.9509 68.0439 28.424L60.4229 12.002C60.1275 11.3385 59.7632 10.8604 59.33 10.5676C58.8967 10.2554 58.3946 10.0993 57.8235 10.0993C57.2524 10.0993 56.7502 10.2554 56.317 10.5676C55.8838 10.8604 55.5096 11.3385 55.1945 12.002L47.6326 28.424C47.3766 28.9509 47.288 29.429 47.3667 29.8584C47.4652 30.2877 47.6818 30.6292 48.0166 30.8829ZM54.4669 22.9793L57.7644 15.1927H57.8235L61.1467 22.9793H54.4669Z" fill="url(#paint3_linear_349_37)"/>
<path fill-rule="evenodd" clip-rule="evenodd" d="M71.941 30.3853C72.3545 30.7951 72.9453 31 73.7133 31H79.4734C81.2654 31 82.8506 30.7756 84.2291 30.3267C85.6076 29.8584 86.7695 29.1851 87.7147 28.3069C88.66 27.4287 89.3787 26.3554 89.871 25.0869C90.3831 23.7989 90.6391 22.3255 90.6391 20.6667C90.6391 17.3687 89.6643 14.8317 87.7147 13.0558C85.7848 11.2604 83.0377 10.3627 79.4734 10.3627H73.7133C72.9453 10.3627 72.3545 10.5676 71.941 10.9774C71.5274 11.3873 71.3206 11.9727 71.3206 12.7338V28.6289C71.3206 29.39 71.5274 29.9754 71.941 30.3853ZM79.2075 27.2824H75.8992V14.0804H79.2075C81.4131 14.0804 83.0673 14.6268 84.17 15.7196C85.2925 16.793 85.8538 18.442 85.8538 20.6667C85.8538 21.7791 85.7159 22.7548 85.4402 23.594C85.1645 24.4136 84.751 25.0967 84.1996 25.6431C83.6482 26.1895 82.959 26.5993 82.1319 26.8725C81.3048 27.1457 80.33 27.2824 79.2075 27.2824Z" fill="url(#paint4_linear_349_37)"/>
<defs>
<linearGradient id="paint0_linear_349_37" x1="22.1075" y1="-1.11093e-05" x2="22.1075" y2="43.8306" gradientUnits="userSpaceOnUse">
<stop stop-color="#4DD1F6"/>
<stop offset="1" stop-color="#0381F6"/>
</linearGradient>
<linearGradient id="paint1_linear_349_37" x1="22.1075" y1="-1.11093e-05" x2="22.1075" y2="43.8306" gradientUnits="userSpaceOnUse">
<stop stop-color="#4DD1F6"/>
<stop offset="1" stop-color="#0381F6"/>
</linearGradient>
<linearGradient id="paint2_linear_349_37" x1="22.1075" y1="-1.11093e-05" x2="22.1075" y2="43.8306" gradientUnits="userSpaceOnUse">
<stop stop-color="#4DD1F6"/>
<stop offset="1" stop-color="#0381F6"/>
</linearGradient>
<linearGradient id="paint3_linear_349_37" x1="22.1075" y1="-1.11093e-05" x2="22.1075" y2="43.8306" gradientUnits="userSpaceOnUse">
<stop stop-color="#4DD1F6"/>
<stop offset="1" stop-color="#0381F6"/>
</linearGradient>
<linearGradient id="paint4_linear_349_37" x1="22.1075" y1="-1.11093e-05" x2="22.1075" y2="43.8306" gradientUnits="userSpaceOnUse">
<stop stop-color="#4DD1F6"/>
<stop offset="1" stop-color="#0381F6"/>
</linearGradient>
</defs>
</svg>
